# xmcd
#
# Track frame offsets:
#	150
#	18222
#	35949
#	54959
#	69513
#	91159
#	103754
#	120488
#	141389
#	154158
#	170743
#	184118
#	199113
#	214651
#	229944
#	251160
#	269497
#	285433
#	297036
#	310071
#	324240
#
# Disc length: 4554 seconds
#
# Revision: 1
# Processed by: cddbd v1.5.1PL0 Copyright (c) Steve Scherf et al.
# Submitted via: EasyCDDAExtractor 7.0.6.1
#
DISCID=3411c815
DTITLE=Negami - Dicen por ahi/Against All odds
DYEAR=2004
DGENRE=Latin-Mexican
TTITLE0=Dicen por ahi
TTITLE1=Me equivoque (Nuevo)
TTITLE2=Ella no sabe
TTITLE3=Y no lo acepto (Nuevo)
TTITLE4=Amor eterno (Nuevo)
TTITLE5=Ayudame (Nuevo)
TTITLE6=Piensalo bien
TTITLE7=Texano enamorado (Nuevo)
TTITLE8=Quiero que vuelvas
TTITLE9=Preguntale a ella
TTITLE10=Me haces falta
TTITLE11=Ven
TTITLE12=Desde hoy (Nuevo)
TTITLE13=Espera un poco mas
TTITLE14=Mienteme
TTITLE15=Loco
TTITLE16=Te pedire volver (Nuevo)
TTITLE17=Mal actor (Nuevo)
TTITLE18=Te he perdido (Nuevo)
TTITLE19=Dime (Nuevo)
TTITLE20=Y no lo acepto (Nuevo)
EXTD=
EXTT0=
EXTT1=
EXTT2=
EXTT3=
EXTT4=
EXTT5=
EXTT6=
EXTT7=
EXTT8=
EXTT9=
EXTT10=
EXTT11=
EXTT12=
EXTT13=
EXTT14=
EXTT15=
EXTT16=
EXTT17=
EXTT18=
EXTT19=
EXTT20=
PLAYORDER=
